<svg xmlns="http://www.w3.org/2000/svg" width="256" height="256" viewBox="0 0 100 100">
    <style>
        rect { fill: red}
        path { fill: #000}
        @media (prefers-color-scheme: dark) {
            path { fill: #fff}
        }
    </style>
    <rect width="100" height="100" rx="20"></rect>
    <path d="M44.71 29.62L44.71 29.62Q44.71 30.82 43.98 31.68Q43.25 32.54 42.30 32.97L42.30 32.97Q40.07 31.42 37.06 30.05Q34.05 28.67 29.23 28.67L29.23 28.67Q25.27 28.67 21.92 30.05Q18.57 31.42 16.07 34.09Q13.58 36.76 12.16 40.80Q10.74 44.84 10.74 50.09L10.74 50.09Q10.74 55.42 12.12 59.37Q13.49 63.33 15.94 66.00Q18.39 68.66 21.84 70.00Q25.27 71.33 29.49 71.33L29.49 71.33Q33.96 71.33 37.27 70.08Q40.58 68.83 42.82 67.11L42.82 67.11Q43.68 67.46 44.45 68.36Q45.23 69.26 45.23 70.47L45.23 70.47Q45.23 72.27 43.16 73.74L43.16 73.74Q41.19 75.11 37.74 76.19Q34.30 77.26 28.97 77.26L28.97 77.26Q23.55 77.26 18.91 75.54Q14.27 73.82 10.87 70.43Q7.47 67.03 5.49 61.95Q3.52 56.88 3.52 50.09L3.52 50.09Q3.52 43.29 5.54 38.18Q7.56 33.06 11.00 29.62Q14.44 26.18 19.04 24.46Q23.64 22.74 28.71 22.74L28.71 22.74Q32.24 22.74 35.21 23.34Q38.18 23.94 40.28 24.93Q42.39 25.92 43.55 27.17Q44.71 28.41 44.71 29.62ZM64.15 56.36L64.15 75.97Q63.63 76.14 62.77 76.36Q61.91 76.57 60.88 76.57L60.88 76.57Q57.10 76.57 57.10 73.39L57.10 73.39L57.10 27.64Q57.10 26.26 57.78 25.53Q58.47 24.80 59.93 24.37L59.93 24.37Q62.43 23.60 66.08 23.25Q69.74 22.91 73.18 22.91L73.18 22.91Q84.01 22.91 89.30 27.25Q94.59 31.60 94.59 39.59L94.59 39.59Q94.59 45.53 91.54 49.57Q88.49 53.61 82.29 55.33L82.29 55.33Q84.44 58.08 86.59 60.84Q88.74 63.59 90.68 66.04Q92.61 68.49 94.12 70.47Q95.62 72.45 96.48 73.56L96.48 73.56Q96.14 75.03 94.98 75.89Q93.82 76.75 92.61 76.75L92.61 76.75Q91.15 76.75 90.21 76.06Q89.26 75.37 88.23 73.91L88.23 73.91L75.67 56.36L64.15 56.36ZM64.06 50.52L73.95 50.52Q80.31 50.52 83.93 47.76Q87.54 45.01 87.54 39.59L87.54 39.59Q87.54 34.18 83.75 31.47Q79.97 28.76 72.92 28.76L72.92 28.76Q70.60 28.76 68.23 28.97Q65.87 29.19 64.06 29.53L64.06 29.53L64.06 50.52Z"></path>
</svg>
